<svg id="SVGID" width="100%" xmlns="http://www.w3.org/2000/svg" style="max-width: 100%; width: 100%; height: 100%; position: absolute; top: 50%; left: 50%; transform: translate(-50%, -50%);" viewBox="-8 -8 1572.331298828125 466.3999938964844" role="graphics-document document" aria-roledescription="flowchart-v2" preserveAspectRatio="xMidYMid meet"><style>#SVGID{font-family:"trebuchet ms",verdana,arial,sans-serif;font-size:16px;fill:#000000;}#SVGID .error-icon{fill:#552222;}#SVGID .error-text{fill:#552222;stroke:#552222;}#SVGID .edge-thickness-normal{stroke-width:2px;}#SVGID .edge-thickness-thick{stroke-width:3.5px;}#SVGID .edge-pattern-solid{stroke-dasharray:0;}#SVGID .edge-pattern-dashed{stroke-dasharray:3;}#SVGID .edge-pattern-dotted{stroke-dasharray:2;}#SVGID .marker{fill:#666;stroke:#666;}#SVGID .marker.cross{stroke:#666;}#SVGID svg{font-family:"trebuchet ms",verdana,arial,sans-serif;font-size:16px;}#SVGID .label{font-family:"trebuchet ms",verdana,arial,sans-serif;color:#000000;}#SVGID .cluster-label text{fill:#333;}#SVGID .cluster-label span,#SVGID p{color:#333;}#SVGID .label text,#SVGID span,#SVGID p{fill:#000000;color:#000000;}#SVGID .node rect,#SVGID .node circle,#SVGID .node ellipse,#SVGID .node polygon,#SVGID .node path{fill:#eee;stroke:#999;stroke-width:1px;}#SVGID .flowchart-label text{text-anchor:middle;}#SVGID .node .label{text-align:center;}#SVGID .node.clickable{cursor:pointer;}#SVGID .arrowheadPath{fill:#333333;}#SVGID .edgePath .path{stroke:#666;stroke-width:2.0px;}#SVGID .flowchart-link{stroke:#666;fill:none;}#SVGID .edgeLabel{background-color:white;text-align:center;}#SVGID .edgeLabel rect{opacity:0.5;background-color:white;fill:white;}#SVGID .labelBkg{background-color:rgba(255, 255, 255, 0.5);}#SVGID .cluster rect{fill:hsl(0, 0%, 98.9215686275%);stroke:#707070;stroke-width:1px;}#SVGID .cluster text{fill:#333;}#SVGID .cluster span,#SVGID p{color:#333;}#SVGID div.mermaidTooltip{position:absolute;text-align:center;max-width:200px;padding:2px;font-family:"trebuchet ms",verdana,arial,sans-serif;font-size:12px;background:hsl(-160, 0%, 93.3333333333%);border:1px solid #707070;border-radius:2px;pointer-events:none;z-index:100;}#SVGID .flowchartTitleText{text-anchor:middle;font-size:18px;fill:#000000;}#SVGID :root{--mermaid-font-family:"trebuchet ms",verdana,arial,sans-serif;}</style><g><marker id="SVGID_flowchart-pointEnd" class="marker flowchart" viewBox="0 0 10 10" refX="6" refY="5" markerUnits="userSpaceOnUse" markerWidth="12" markerHeight="12" orient="auto"><path d="M 0 0 L 10 5 L 0 10 z" class="arrowMarkerPath" style="stroke-width: 1; stroke-dasharray: 1, 0;"/></marker><marker id="SVGID_flowchart-pointStart" class="marker flowchart" viewBox="0 0 10 10" refX="4.5" refY="5" markerUnits="userSpaceOnUse" markerWidth="12" markerHeight="12" orient="auto"><path d="M 0 5 L 10 10 L 10 0 z" class="arrowMarkerPath" style="stroke-width: 1; stroke-dasharray: 1, 0;"/></marker><marker id="SVGID_flowchart-circleEnd" class="marker flowchart" viewBox="0 0 10 10" refX="11" refY="5" markerUnits="userSpaceOnUse" markerWidth="11" markerHeight="11" orient="auto"><circle cx="5" cy="5" r="5" class="arrowMarkerPath" style="stroke-width: 1; stroke-dasharray: 1, 0;"/></marker><marker id="SVGID_flowchart-circleStart" class="marker flowchart" viewBox="0 0 10 10" refX="-1" refY="5" markerUnits="userSpaceOnUse" markerWidth="11" markerHeight="11" orient="auto"><circle cx="5" cy="5" r="5" class="arrowMarkerPath" style="stroke-width: 1; stroke-dasharray: 1, 0;"/></marker><marker id="SVGID_flowchart-crossEnd" class="marker cross flowchart" viewBox="0 0 11 11" refX="12" refY="5.2" markerUnits="userSpaceOnUse" markerWidth="11" markerHeight="11" orient="auto"><path d="M 1,1 l 9,9 M 10,1 l -9,9" class="arrowMarkerPath" style="stroke-width: 2; stroke-dasharray: 1, 0;"/></marker><marker id="SVGID_flowchart-crossStart" class="marker cross flowchart" viewBox="0 0 11 11" refX="-1" refY="5.2" markerUnits="userSpaceOnUse" markerWidth="11" markerHeight="11" orient="auto"><path d="M 1,1 l 9,9 M 10,1 l -9,9" class="arrowMarkerPath" style="stroke-width: 2; stroke-dasharray: 1, 0;"/></marker><g class="root"><g class="clusters"/><g class="edgePaths"><path d="M88.42,208.5L102.871,190.433C117.322,172.367,146.223,136.233,164.342,118.167C182.461,100.1,189.797,100.1,193.465,100.1L197.133,100.1" id="L-UI-BS-0" class=" edge-thickness-normal edge-pattern-solid flowchart-link LS-UI LE-BS" style="fill:none;" marker-end="url(#SVGID_flowchart-pointEnd)"/><path d="M283.552,83.4L295.593,72.283C307.634,61.167,331.717,38.933,355.925,27.817C380.133,16.7,404.466,16.7,416.632,16.7L428.798,16.7" id="L-BS-DB-0" class=" edge-thickness-normal edge-pattern-solid flowchart-link LS-BS LE-DB" style="fill:none;" marker-end="url(#SVGID_flowchart-pointEnd)"/><path d="M328.492,100.1L333.043,100.1C337.595,100.1,346.697,100.1,356.241,100.1C365.784,100.1,375.768,100.1,380.76,100.1L385.752,100.1" id="L-BS-CM-0" class=" edge-thickness-normal edge-pattern-solid flowchart-link LS-BS LE-CM" style="fill:none;" marker-end="url(#SVGID_flowchart-pointEnd)"/><path d="M283.552,116.8L295.593,127.917C307.634,139.033,331.717,161.267,353.103,172.383C374.488,183.5,393.177,183.5,402.521,183.5L411.865,183.5" id="L-BS-CS-0" class=" edge-thickness-normal edge-pattern-solid flowchart-link LS-BS LE-CS" style="fill:none;" marker-end="url(#SVGID_flowchart-pointEnd)"/><path d="M95.099,241.9L108.437,253.017C121.774,264.133,148.45,286.367,165.071,297.483C181.692,308.6,188.258,308.6,191.542,308.6L194.825,308.6" id="L-UI-UII-0" class=" edge-thickness-normal edge-pattern-solid flowchart-link LS-UI LE-UII" style="fill:none;" marker-end="url(#SVGID_flowchart-pointEnd)"/><path d="M301.641,291.9L310.667,287.733C319.694,283.567,337.747,275.233,361.235,271.067C384.723,266.9,413.646,266.9,428.107,266.9L442.569,266.9" id="L-UII-UII1-0" class=" edge-thickness-normal edge-pattern-solid flowchart-link LS-UII LE-UII1" style="fill:none;" marker-end="url(#SVGID_flowchart-pointEnd)"/><path d="M301.641,325.3L310.667,329.467C319.694,333.633,337.747,341.967,350.057,346.133C362.367,350.3,368.933,350.3,372.217,350.3L375.5,350.3" id="L-UII-UII2-0" class=" edge-thickness-normal edge-pattern-solid flowchart-link LS-UII LE-UII2" style="fill:none;" marker-end="url(#SVGID_flowchart-pointEnd)"/><path d="M567.963,350.3L572.129,350.3C576.296,350.3,584.629,350.3,592.079,350.3C599.529,350.3,606.096,350.3,609.379,350.3L612.663,350.3" id="L-UII2-EP-0" class=" edge-thickness-normal edge-pattern-solid flowchart-link LS-UII2 LE-EP" style="fill:none;" marker-end="url(#SVGID_flowchart-pointEnd)"/><path d="M766.863,350.3L771.029,350.3C775.196,350.3,783.529,350.3,790.979,350.3C798.429,350.3,804.996,350.3,808.279,350.3L811.563,350.3" id="L-EP-EP1-0" class=" edge-thickness-normal edge-pattern-solid flowchart-link LS-EP LE-EP1" style="fill:none;" marker-end="url(#SVGID_flowchart-pointEnd)"/><path d="M917.85,350.3L922.017,350.3C926.183,350.3,934.517,350.3,941.967,350.3C949.417,350.3,955.983,350.3,959.267,350.3L962.55,350.3" id="L-EP1-EP2-0" class=" edge-thickness-normal edge-pattern-solid flowchart-link LS-EP1 LE-EP2" style="fill:none;" marker-end="url(#SVGID_flowchart-pointEnd)"/><path d="M1090.825,350.3L1094.992,350.3C1099.158,350.3,1107.492,350.3,1114.942,350.3C1122.392,350.3,1128.958,350.3,1132.242,350.3L1135.525,350.3" id="L-EP2-EP3-0" class=" edge-thickness-normal edge-pattern-solid flowchart-link LS-EP2 LE-EP3" style="fill:none;" marker-end="url(#SVGID_flowchart-pointEnd)"/><path d="M1263.063,350.3L1267.229,350.3C1271.396,350.3,1279.729,350.3,1287.179,350.3C1294.629,350.3,1301.196,350.3,1304.479,350.3L1307.763,350.3" id="L-EP3-EP4-0" class=" edge-thickness-normal edge-pattern-solid flowchart-link LS-EP3 LE-EP4" style="fill:none;" marker-end="url(#SVGID_flowchart-pointEnd)"/><path d="M1437.25,350.3L1441.417,350.3C1445.583,350.3,1453.917,350.3,1461.367,350.3C1468.817,350.3,1475.383,350.3,1478.667,350.3L1481.95,350.3" id="L-EP4-EP5-0" class=" edge-thickness-normal edge-pattern-solid flowchart-link LS-EP4 LE-EP5" style="fill:none;" marker-end="url(#SVGID_flowchart-pointEnd)"/><path d="M150.125,433.7L154.292,433.7C158.458,433.7,166.792,433.7,174.768,433.7C182.744,433.7,190.362,433.7,194.172,433.7L197.981,433.7" id="L-DS-DS1-0" class=" edge-thickness-normal edge-pattern-solid flowchart-link LS-DS LE-DS1" style="fill:none;" marker-end="url(#SVGID_flowchart-pointEnd)"/><path d="M327.644,433.7L332.336,433.7C337.029,433.7,346.415,433.7,361.072,433.7C375.729,433.7,395.658,433.7,405.623,433.7L415.588,433.7" id="L-DS1-DS2-0" class=" edge-thickness-normal edge-pattern-solid flowchart-link LS-DS1 LE-DS2" style="fill:none;" marker-end="url(#SVGID_flowchart-pointEnd)"/><path d="M527.875,433.7L538.723,433.7C549.571,433.7,571.267,433.7,587.544,433.7C603.821,433.7,614.679,433.7,620.108,433.7L625.538,433.7" id="L-DS2-DS3-0" class=" edge-thickness-normal edge-pattern-solid flowchart-link LS-DS2 LE-DS3" style="fill:none;" marker-end="url(#SVGID_flowchart-pointEnd)"/></g><g class="edgeLabels"><g class="edgeLabel"><g class="label" transform="translate(0, 0)"><rect rx="0" ry="0" width="0" height="0"/><text style=""><tspan xml:space="preserve" dy="1em" x="0" class="row"/></text></g></g><g class="edgeLabel"><g class="label" transform="translate(0, 0)"><rect rx="0" ry="0" width="0" height="0"/><text style=""><tspan xml:space="preserve" dy="1em" x="0" class="row"/></text></g></g><g class="edgeLabel"><g class="label" transform="translate(0, 0)"><rect rx="0" ry="0" width="0" height="0"/><text style=""><tspan xml:space="preserve" dy="1em" x="0" class="row"/></text></g></g><g class="edgeLabel"><g class="label" transform="translate(0, 0)"><rect rx="0" ry="0" width="0" height="0"/><text style=""><tspan xml:space="preserve" dy="1em" x="0" class="row"/></text></g></g><g class="edgeLabel"><g class="label" transform="translate(0, 0)"><rect rx="0" ry="0" width="0" height="0"/><text style=""><tspan xml:space="preserve" dy="1em" x="0" class="row"/></text></g></g><g class="edgeLabel"><g class="label" transform="translate(0, 0)"><rect rx="0" ry="0" width="0" height="0"/><text style=""><tspan xml:space="preserve" dy="1em" x="0" class="row"/></text></g></g><g class="edgeLabel"><g class="label" transform="translate(0, 0)"><rect rx="0" ry="0" width="0" height="0"/><text style=""><tspan xml:space="preserve" dy="1em" x="0" class="row"/></text></g></g><g class="edgeLabel"><g class="label" transform="translate(0, 0)"><rect rx="0" ry="0" width="0" height="0"/><text style=""><tspan xml:space="preserve" dy="1em" x="0" class="row"/></text></g></g><g class="edgeLabel"><g class="label" transform="translate(0, 0)"><rect rx="0" ry="0" width="0" height="0"/><text style=""><tspan xml:space="preserve" dy="1em" x="0" class="row"/></text></g></g><g class="edgeLabel"><g class="label" transform="translate(0, 0)"><rect rx="0" ry="0" width="0" height="0"/><text style=""><tspan xml:space="preserve" dy="1em" x="0" class="row"/></text></g></g><g class="edgeLabel"><g class="label" transform="translate(0, 0)"><rect rx="0" ry="0" width="0" height="0"/><text style=""><tspan xml:space="preserve" dy="1em" x="0" class="row"/></text></g></g><g class="edgeLabel"><g class="label" transform="translate(0, 0)"><rect rx="0" ry="0" width="0" height="0"/><text style=""><tspan xml:space="preserve" dy="1em" x="0" class="row"/></text></g></g><g class="edgeLabel"><g class="label" transform="translate(0, 0)"><rect rx="0" ry="0" width="0" height="0"/><text style=""><tspan xml:space="preserve" dy="1em" x="0" class="row"/></text></g></g><g class="edgeLabel"><g class="label" transform="translate(0, 0)"><rect rx="0" ry="0" width="0" height="0"/><text style=""><tspan xml:space="preserve" dy="1em" x="0" class="row"/></text></g></g><g class="edgeLabel"><g class="label" transform="translate(0, 0)"><rect rx="0" ry="0" width="0" height="0"/><text style=""><tspan xml:space="preserve" dy="1em" x="0" class="row"/></text></g></g><g class="edgeLabel"><g class="label" transform="translate(0, 0)"><rect rx="0" ry="0" width="0" height="0"/><text style=""><tspan xml:space="preserve" dy="1em" x="0" class="row"/></text></g></g></g><g class="nodes"><g class="node default default flowchart-label" id="flowchart-UI-240" transform="translate(75.0625, 225.20000457763672)"><rect class="basic label-container" style="" rx="5" ry="5" x="-58.571876525878906" y="-16.699999809265137" width="117.14375305175781" height="33.39999961853027"/><g class="label" style="" transform="translate(0, -9.199999809265137)"><rect/><text style=""><tspan xml:space="preserve" dy="1em" x="0" class="row">User Interface</tspan></text></g></g><g class="node default default flowchart-label" id="flowchart-BS-241" transform="translate(265.4625015258789, 100.10000228881836)"><rect class="basic label-container" style="" rx="5" ry="5" x="-63.02968978881836" y="-16.699999809265137" width="126.05937957763672" height="33.39999961853027"/><g class="label" style="" transform="translate(0, -9.199999809265137)"><rect/><text style=""><tspan xml:space="preserve" dy="1em" x="0" class="row">Backend Server</tspan></text></g></g><g class="node default default flowchart-label" id="flowchart-DB-243" transform="translate(474.3812561035156, 16.700000762939453)"><rect class="basic label-container" style="" rx="5" ry="5" x="-40.282814025878906" y="-16.699999809265137" width="80.56562805175781" height="33.39999961853027"/><g class="label" style="" transform="translate(0, -9.199999809265137)"><rect/><text style=""><tspan xml:space="preserve" dy="1em" x="0" class="row">Database</tspan></text></g></g><g class="node default default flowchart-label" id="flowchart-CM-245" transform="translate(474.3812561035156, 100.10000228881836)"><rect class="basic label-container" style="" rx="5" ry="5" x="-83.3296890258789" y="-16.699999809265137" width="166.6593780517578" height="33.39999961853027"/><g class="label" style="" transform="translate(0, -9.199999809265137)"><rect/><text style=""><tspan xml:space="preserve" dy="1em" x="0" class="row">Cryptography Module</tspan></text></g></g><g class="node default default flowchart-label" id="flowchart-CS-247" transform="translate(474.3812561035156, 183.50000381469727)"><rect class="basic label-container" style="" rx="5" ry="5" x="-57.216407775878906" y="-16.699999809265137" width="114.43281555175781" height="33.39999961853027"/><g class="label" style="" transform="translate(0, -9.199999809265137)"><rect/><text style=""><tspan xml:space="preserve" dy="1em" x="0" class="row">Cloud Storage</tspan></text></g></g><g class="node default default flowchart-label" id="flowchart-UII-249" transform="translate(265.4625015258789, 308.6000061035156)"><rect class="basic label-container" style="" rx="5" ry="5" x="-65.3375015258789" y="-16.699999809265137" width="130.6750030517578" height="33.39999961853027"/><g class="label" style="" transform="translate(0, -9.199999809265137)"><rect/><text style=""><tspan xml:space="preserve" dy="1em" x="0" class="row">User Interaction</tspan></text></g></g><g class="node default default flowchart-label" id="flowchart-UII1-251" transform="translate(474.3812561035156, 266.9000053405762)"><rect class="basic label-container" style="" rx="5" ry="5" x="-26.512500762939453" y="-16.699999809265137" width="53.025001525878906" height="33.39999961853027"/><g class="label" style="" transform="translate(0, -9.199999809265137)"><rect/><text style=""><tspan xml:space="preserve" dy="1em" x="0" class="row">Login</tspan></text></g></g><g class="node default default flowchart-label" id="flowchart-UII2-253" transform="translate(474.3812561035156, 350.3000068664551)"><rect class="basic label-container" style="" rx="5" ry="5" x="-93.58125305175781" y="-16.699999809265137" width="187.16250610351562" height="33.39999961853027"/><g class="label" style="" transform="translate(0, -9.199999809265137)"><rect/><text style=""><tspan xml:space="preserve" dy="1em" x="0" class="row">File Uploads/Downloads</tspan></text></g></g><g class="node default default flowchart-label" id="flowchart-EP-255" transform="translate(692.4125137329102, 350.3000068664551)"><rect class="basic label-container" style="" rx="5" ry="5" x="-74.45000457763672" y="-16.699999809265137" width="148.90000915527344" height="33.39999961853027"/><g class="label" style="" transform="translate(0, -9.199999809265137)"><rect/><text style=""><tspan xml:space="preserve" dy="1em" x="0" class="row">Encryption Process</tspan></text></g></g><g class="node default default flowchart-label" id="flowchart-EP1-257" transform="translate(867.3562698364258, 350.3000068664551)"><rect class="basic label-container" style="" rx="5" ry="5" x="-50.493751525878906" y="-16.699999809265137" width="100.98750305175781" height="33.39999961853027"/><g class="label" style="" transform="translate(0, -9.199999809265137)"><rect/><text style=""><tspan xml:space="preserve" dy="1em" x="0" class="row">File uploads</tspan></text></g></g><g class="node default default flowchart-label" id="flowchart-EP2-259" transform="translate(1029.3375205993652, 350.3000068664551)"><rect class="basic label-container" style="" rx="5" ry="5" x="-61.48749923706055" y="-16.699999809265137" width="122.9749984741211" height="33.39999961853027"/><g class="label" style="" transform="translate(0, -9.199999809265137)"><rect/><text style=""><tspan xml:space="preserve" dy="1em" x="0" class="row">AES encryption</tspan></text></g></g><g class="node default default flowchart-label" id="flowchart-EP3-261" transform="translate(1201.9437713623047, 350.3000068664551)"><rect class="basic label-container" style="" rx="5" ry="5" x="-61.118751525878906" y="-16.699999809265137" width="122.23750305175781" height="33.39999961853027"/><g class="label" style="" transform="translate(0, -9.199999809265137)"><rect/><text style=""><tspan xml:space="preserve" dy="1em" x="0" class="row">Key generation</tspan></text></g></g><g class="node default default flowchart-label" id="flowchart-EP4-263" transform="translate(1375.1562728881836, 350.3000068664551)"><rect class="basic label-container" style="" rx="5" ry="5" x="-62.09375" y="-16.699999809265137" width="124.1875" height="33.39999961853027"/><g class="label" style="" transform="translate(0, -9.199999809265137)"><rect/><text style=""><tspan xml:space="preserve" dy="1em" x="0" class="row">ECC encryption</tspan></text></g></g><g class="node default default flowchart-label" id="flowchart-EP5-265" transform="translate(1521.7906494140625, 350.3000068664551)"><rect class="basic label-container" style="" rx="5" ry="5" x="-34.54062461853027" y="-16.699999809265137" width="69.08124923706055" height="33.39999961853027"/><g class="label" style="" transform="translate(0, -9.199999809265137)"><rect/><text style=""><tspan xml:space="preserve" dy="1em" x="0" class="row">Storage</tspan></text></g></g><g class="node default default flowchart-label" id="flowchart-DS-266" transform="translate(75.0625, 433.700008392334)"><rect class="basic label-container" style="" rx="5" ry="5" x="-75.0625" y="-16.699999809265137" width="150.125" height="33.39999961853027"/><g class="label" style="" transform="translate(0, -9.199999809265137)"><rect/><text style=""><tspan xml:space="preserve" dy="1em" x="0" class="row">Decryption Process</tspan></text></g></g><g class="node default default flowchart-label" id="flowchart-DS1-267" transform="translate(265.4625015258789, 433.700008392334)"><rect class="basic label-container" style="" rx="5" ry="5" x="-62.181251525878906" y="-16.699999809265137" width="124.36250305175781" height="33.39999961853027"/><g class="label" style="" transform="translate(0, -9.199999809265137)"><rect/><text style=""><tspan xml:space="preserve" dy="1em" x="0" class="row">ECC decryption</tspan></text></g></g><g class="node default default flowchart-label" id="flowchart-DS2-269" transform="translate(474.3812561035156, 433.700008392334)"><rect class="basic label-container" style="" rx="5" ry="5" x="-53.493751525878906" y="-16.699999809265137" width="106.98750305175781" height="33.39999961853027"/><g class="label" style="" transform="translate(0, -9.199999809265137)"><rect/><text style=""><tspan xml:space="preserve" dy="1em" x="0" class="row">Key retrieval</tspan></text></g></g><g class="node default default flowchart-label" id="flowchart-DS3-271" transform="translate(692.4125137329102, 433.700008392334)"><rect class="basic label-container" style="" rx="5" ry="5" x="-61.57500076293945" y="-16.699999809265137" width="123.1500015258789" height="33.39999961853027"/><g class="label" style="" transform="translate(0, -9.199999809265137)"><rect/><text style=""><tspan xml:space="preserve" dy="1em" x="0" class="row">AES decryption</tspan></text></g></g></g></g></g></svg>